# xmcd
#
# Track frame offsets:
#	150
#	18523
#	35267
#	53738
#	68270
#	82454
#	100282
#	117256
#	138810
#	153488
#	172179
#	186926
#	207631
#	225711
#	245088
#
# Disc length: 3496 seconds
# Revision: 0
# Processed by: cddbd v1.5.2PL0 Copyright (c) Steve Scherf et al.
# Submitted via: dBpowerAMP V12.0
#
DISCID=d30da60f
DTITLE=David J. Hartley - Hard Times in Boredom Town
DYEAR=2010
DGENRE=Country
TTITLE0=Hard Times in Boredom Town
TTITLE1=Sooner Will Come
TTITLE2=Isn't It Time
TTITLE3=Time Don't Wait
TTITLE4=It's You
TTITLE5=It's Good to See You Again
TTITLE6=Glass Bottle
TTITLE7=The Reason
TTITLE8=County Fair
TTITLE9=I Wanna Know
TTITLE10=Summer Shine
TTITLE11=She Believes
TTITLE12=Cowgirl Hat
TTITLE13=Closing Time
TTITLE14=On My Way
EXTD=
EXTT0=
EXTT1=
EXTT2=
EXTT3=
EXTT4=
EXTT5=
EXTT6=
EXTT7=
EXTT8=
EXTT9=
EXTT10=
EXTT11=
EXTT12=
EXTT13=
EXTT14=
PLAYORDER=
